<svg width="390" height="477" viewBox="0 0 390 477" fill="none" xmlns="http://www.w3.org/2000/svg">
<g filter="url(#filter0_d_72_3718)">
<mask id="path-1-inside-1_72_3718" fill="white">
<path fill-rule="evenodd" clip-rule="evenodd" d="M195 138C235.869 138 269 104.869 269 64H330C338.837 64 346 71.1634 346 80V413C346 421.837 338.837 429 330 429H60C51.1634 429 44 421.837 44 413V80C44 71.1635 51.1634 64 60 64H121C121 104.869 154.131 138 195 138Z"/>
</mask>
<path fill-rule="evenodd" clip-rule="evenodd" d="M195 138C235.869 138 269 104.869 269 64H330C338.837 64 346 71.1634 346 80V413C346 421.837 338.837 429 330 429H60C51.1634 429 44 421.837 44 413V80C44 71.1635 51.1634 64 60 64H121C121 104.869 154.131 138 195 138Z" fill="url(#paint0_linear_72_3718)" fill-opacity="0.1" shape-rendering="crispEdges"/>
<path d="M269 64V62H267V64H269ZM121 64H123V62H121V64ZM267 64C267 103.765 234.764 136 195 136V140C236.974 140 271 105.974 271 64H267ZM269 66H330V62H269V66ZM330 66C337.732 66 344 72.268 344 80H348C348 70.0589 339.941 62 330 62V66ZM344 80V413H348V80H344ZM344 413C344 420.732 337.732 427 330 427V431C339.941 431 348 422.941 348 413H344ZM330 427H60V431H330V427ZM60 427C52.268 427 46 420.732 46 413H42C42 422.941 50.0589 431 60 431V427ZM46 413V80H42V413H46ZM46 80C46 72.268 52.268 66 60 66V62C50.0589 62 42 70.0589 42 80H46ZM60 66H121V62H60V66ZM195 136C155.235 136 123 103.765 123 64H119C119 105.974 153.026 140 195 140V136Z" fill="url(#paint1_linear_72_3718)" mask="url(#path-1-inside-1_72_3718)"/>
</g>
<circle cx="195" cy="64" r="63" stroke="url(#paint2_linear_72_3718)" stroke-width="2"/>
<path d="M209.162 66.0312C210 68.3954 212.258 70.0938 214.906 70.0938C218.266 70.0938 221 67.3601 221 64C221 60.6399 218.266 57.9062 214.906 57.9062C212.258 57.9062 210 59.6046 209.162 61.9688H201.094V57.9062H206.781C210.141 57.9062 212.875 55.1726 212.875 51.8125V49.8381C215.239 48.9996 216.938 46.7418 216.938 44.0938C216.938 40.7337 214.204 38 210.844 38C207.484 38 204.75 40.7337 204.75 44.0938C204.75 46.7418 206.448 48.9995 208.812 49.8381V51.8125C208.812 52.9325 207.901 53.8438 206.781 53.8438H201.094V47.75C201.094 45.0344 200.019 42.5382 198.067 40.7211C196.182 38.9664 193.65 38 190.938 38C187.558 38 184.689 39.3164 182.869 41.6566C182.85 41.6564 182.832 41.6562 182.812 41.6562C180.572 41.6562 178.447 42.3719 176.667 43.7256C174.947 45.0344 173.667 46.8929 173.063 48.9584C172.793 49.8822 172.656 50.8424 172.656 51.8125C172.656 51.8316 172.656 51.8505 172.657 51.8694C170.316 53.6895 169 56.5582 169 59.9375C169 61.3396 169.294 62.7015 169.877 64.0001C169.295 65.2987 169 66.6607 169 68.0625C169 71.4418 170.316 74.3105 172.657 76.1306C172.656 76.1495 172.656 76.1684 172.656 76.1875C172.656 81.7877 177.212 86.3438 182.812 86.3438C182.832 86.3438 182.85 86.3436 182.869 86.3434C184.689 88.6836 187.558 90 190.938 90C193.65 90 196.182 89.0336 198.067 87.2788C200.019 85.4617 201.094 82.9655 201.094 80.25V74.1562H206.781C207.901 74.1562 208.812 75.0675 208.812 76.1875V78.1619C206.448 79.0004 204.75 81.2582 204.75 83.9062C204.75 87.2663 207.484 90 210.844 90C214.204 90 216.938 87.2663 216.938 83.9062C216.938 81.2582 215.239 79.0005 212.875 78.1619V76.1875C212.875 72.8274 210.141 70.0938 206.781 70.0938H201.094V66.0312H209.162ZM214.906 61.9688C216.026 61.9688 216.938 62.88 216.938 64C216.938 65.12 216.026 66.0312 214.906 66.0312C213.786 66.0312 212.875 65.12 212.875 64C212.875 62.88 213.786 61.9688 214.906 61.9688ZM210.844 42.0625C211.964 42.0625 212.875 42.9737 212.875 44.0938C212.875 45.2138 211.964 46.125 210.844 46.125C209.724 46.125 208.812 45.2138 208.812 44.0938C208.812 42.9737 209.724 42.0625 210.844 42.0625ZM197.031 53.8438H190.938C189.817 53.8438 188.906 52.9325 188.906 51.8125V49.7812H184.844V51.8125C184.844 55.1726 187.577 57.9062 190.938 57.9062H197.031V61.9688H187.716L184.249 58.5012L181.376 61.3738L184.002 64L181.376 66.6262L184.249 69.4988L187.716 66.0312H197.031V70.0938H190.938C187.577 70.0938 184.844 72.8274 184.844 76.1875V78.2188H188.906V76.1875C188.906 75.0675 189.817 74.1562 190.938 74.1562H197.031V80.25C197.031 83.4924 194.411 85.9375 190.938 85.9375C188.517 85.9375 186.64 84.9687 185.652 83.2096L184.978 82.01C183.545 82.2006 183.663 82.1835 183.4 82.2205C183.168 82.2531 182.968 82.2812 182.812 82.2812C179.075 82.2812 176.312 78.9241 176.78 75.6002C176.828 75.2502 176.807 75.4002 176.99 74.0224L175.791 73.3482C174.031 72.3597 173.062 70.4825 173.062 68.0625C173.062 67.0154 173.349 65.9924 173.914 65.0218L174.509 63.9999L173.914 62.9781C173.349 62.0079 173.062 60.9848 173.062 59.9375C173.062 57.5175 174.031 55.6403 175.79 54.6518L176.99 53.9776C176.989 53.9672 176.719 51.9976 176.719 51.8125C176.719 51.2285 176.801 50.6518 176.963 50.0985C177.816 47.18 180.735 45.4048 183.4 45.7795C183.661 45.8162 183.536 45.7982 184.978 45.99L185.652 44.7904C186.64 43.0313 188.517 42.0625 190.938 42.0625C194.411 42.0625 197.031 44.5076 197.031 47.75V53.8438ZM210.844 81.875C211.964 81.875 212.875 82.7862 212.875 83.9062C212.875 85.0263 211.964 85.9375 210.844 85.9375C209.724 85.9375 208.812 85.0263 208.812 83.9062C208.812 82.7862 209.724 81.875 210.844 81.875Z" fill="url(#paint3_linear_72_3718)"/>
<defs>
<filter id="filter0_d_72_3718" x="0" y="24" width="390" height="453" filterUnits="userSpaceOnUse" color-interpolation-filters="sRGB">
<feFlood flood-opacity="0" result="BackgroundImageFix"/>
<feColorMatrix in="SourceAlpha" type="matrix" values="0 0 0 0 0 0 0 0 0 0 0 0 0 0 0 0 0 0 127 0" result="hardAlpha"/>
<feOffset dy="4"/>
<feGaussianBlur stdDeviation="22"/>
<feComposite in2="hardAlpha" operator="out"/>
<feColorMatrix type="matrix" values="0 0 0 0 0 0 0 0 0 0 0 0 0 0 0 0 0 0 0.12 0"/>
<feBlend mode="normal" in2="BackgroundImageFix" result="effect1_dropShadow_72_3718"/>
<feBlend mode="normal" in="SourceGraphic" in2="effect1_dropShadow_72_3718" result="shape"/>
</filter>
<linearGradient id="paint0_linear_72_3718" x1="195" y1="64" x2="195" y2="429" gradientUnits="userSpaceOnUse">
<stop stop-color="#0082DE"/>
<stop offset="1" stop-color="#58F88C"/>
</linearGradient>
<linearGradient id="paint1_linear_72_3718" x1="195" y1="64" x2="195" y2="429" gradientUnits="userSpaceOnUse">
<stop stop-color="#58F88C"/>
<stop offset="1" stop-color="#0082DE"/>
</linearGradient>
<linearGradient id="paint2_linear_72_3718" x1="195" y1="0" x2="195" y2="128" gradientUnits="userSpaceOnUse">
<stop stop-color="#58F88C"/>
<stop offset="1" stop-color="#0082DE"/>
</linearGradient>
<linearGradient id="paint3_linear_72_3718" x1="169" y1="64.0001" x2="221" y2="64.0001" gradientUnits="userSpaceOnUse">
<stop stop-color="#9CFFAC"/>
<stop offset="1" stop-color="#00B59C"/>
</linearGradient>
</defs>
</svg>
