<svg width="390" height="477" viewBox="0 0 390 477" fill="none" xmlns="http://www.w3.org/2000/svg">
<g filter="url(#filter0_d_72_3702)">
<mask id="path-1-inside-1_72_3702" fill="white">
<path fill-rule="evenodd" clip-rule="evenodd" d="M195 138C235.869 138 269 104.869 269 64H330C338.837 64 346 71.1634 346 80V413C346 421.837 338.837 429 330 429H60C51.1634 429 44 421.837 44 413V80C44 71.1635 51.1634 64 60 64H121C121 104.869 154.131 138 195 138Z"/>
</mask>
<path fill-rule="evenodd" clip-rule="evenodd" d="M195 138C235.869 138 269 104.869 269 64H330C338.837 64 346 71.1634 346 80V413C346 421.837 338.837 429 330 429H60C51.1634 429 44 421.837 44 413V80C44 71.1635 51.1634 64 60 64H121C121 104.869 154.131 138 195 138Z" fill="url(#paint0_linear_72_3702)" fill-opacity="0.1" shape-rendering="crispEdges"/>
<path d="M269 64V62H267V64H269ZM121 64H123V62H121V64ZM267 64C267 103.765 234.764 136 195 136V140C236.974 140 271 105.974 271 64H267ZM269 66H330V62H269V66ZM330 66C337.732 66 344 72.268 344 80H348C348 70.0589 339.941 62 330 62V66ZM344 80V413H348V80H344ZM344 413C344 420.732 337.732 427 330 427V431C339.941 431 348 422.941 348 413H344ZM330 427H60V431H330V427ZM60 427C52.268 427 46 420.732 46 413H42C42 422.941 50.0589 431 60 431V427ZM46 413V80H42V413H46ZM46 80C46 72.268 52.268 66 60 66V62C50.0589 62 42 70.0589 42 80H46ZM60 66H121V62H60V66ZM195 136C155.235 136 123 103.765 123 64H119C119 105.974 153.026 140 195 140V136Z" fill="url(#paint1_linear_72_3702)" mask="url(#path-1-inside-1_72_3702)"/>
</g>
<circle cx="195" cy="64" r="63" stroke="url(#paint2_linear_72_3702)" stroke-width="2"/>
<path d="M201.354 64C201.354 65.2567 200.981 66.4851 200.283 67.53C199.585 68.5748 198.592 69.3892 197.431 69.8701C196.27 70.351 194.993 70.4768 193.76 70.2317C192.528 69.9865 191.396 69.3814 190.507 68.4928C189.619 67.6042 189.013 66.4721 188.768 65.2396C188.523 64.007 188.649 62.7295 189.13 61.5685C189.611 60.4075 190.425 59.4152 191.47 58.717C192.515 58.0189 193.743 57.6463 195 57.6463C195.835 57.6441 196.662 57.807 197.434 58.1255C198.206 58.4441 198.907 58.912 199.498 59.5024C200.088 60.0929 200.556 60.7942 200.874 61.566C201.193 62.3378 201.356 63.165 201.354 64ZM221 63.1062V64.8937C220.996 66.3032 220.435 67.654 219.44 68.6522C218.445 69.6504 217.096 70.2152 215.686 70.2237H214.175C213.836 71.2255 213.429 72.2028 212.956 73.1487L214.013 74.205C215.004 75.2061 215.56 76.558 215.56 77.9669C215.56 79.3757 215.004 80.7277 214.013 81.7287L212.729 82.9963C211.728 83.9876 210.376 84.5437 208.967 84.5437C207.558 84.5437 206.206 83.9876 205.205 82.9963L204.149 81.94C203.202 82.4074 202.225 82.8092 201.224 83.1425V84.6537C201.224 86.0689 200.663 87.4262 199.664 88.4284C198.665 89.4305 197.309 89.9957 195.894 90H194.106C192.697 89.9957 191.346 89.435 190.348 88.4399C189.35 87.4448 188.785 86.0957 188.776 84.6862V83.175C187.776 82.8332 186.799 82.4261 185.851 81.9562L184.795 83.0125C183.791 84.0049 182.437 84.5614 181.025 84.5614C179.613 84.5614 178.259 84.0049 177.255 83.0125L176.004 81.745C175.012 80.7439 174.456 79.392 174.456 77.9831C174.456 76.5742 175.012 75.2223 176.004 74.2213L177.125 73.1487C176.651 72.2056 176.249 71.2278 175.923 70.2237H174.346C172.932 70.2195 171.578 69.6571 170.576 68.6589C169.575 67.6607 169.009 66.3075 169 64.8937V63.1062C169.004 61.694 169.567 60.3407 170.566 59.3421C171.564 58.3435 172.918 57.7805 174.33 57.7763H175.825C176.183 56.7694 176.617 55.7915 177.125 54.8512L176.085 53.795C175.093 52.7912 174.536 51.4365 174.536 50.025C174.536 48.6135 175.093 47.2588 176.085 46.255L177.336 44.9875C178.34 43.9951 179.695 43.4386 181.106 43.4386C182.518 43.4386 183.872 43.9951 184.876 44.9875L185.933 46.0437C186.875 45.5642 187.853 45.1568 188.858 44.825V43.3462C188.861 41.9463 189.413 40.6035 190.393 39.6045C191.374 38.6055 192.707 38.0297 194.106 38H195.894C197.305 38.0085 198.655 38.5728 199.653 39.5705C200.651 40.5683 201.215 41.919 201.224 43.33V44.825C202.228 45.1513 203.206 45.5532 204.149 46.0275L205.205 44.9712C206.206 43.9799 207.558 43.4238 208.967 43.4238C210.376 43.4238 211.728 43.9799 212.729 44.9712L214.013 46.2388C215.005 47.2426 215.561 48.5972 215.561 50.0087C215.561 51.4203 215.005 52.7749 214.013 53.7788L212.956 54.835C213.431 55.7782 213.832 56.756 214.159 57.76H215.67C217.085 57.7643 218.441 58.3295 219.44 59.3316C220.439 60.3338 221 61.6911 221 63.1062ZM204.75 64C204.75 62.0716 204.178 60.1866 203.107 58.5832C202.035 56.9798 200.513 55.7301 198.731 54.9922C196.95 54.2542 194.989 54.0611 193.098 54.4373C191.207 54.8136 189.469 55.7421 188.106 57.1057C186.742 58.4693 185.814 60.2066 185.437 62.0979C185.061 63.9892 185.254 65.9496 185.992 67.7312C186.73 69.5127 187.98 71.0355 189.583 72.1068C191.187 73.1782 193.072 73.75 195 73.75C197.578 73.7246 200.043 72.6892 201.866 70.8662C203.689 69.0432 204.725 66.578 204.75 64Z" fill="url(#paint3_linear_72_3702)"/>
<defs>
<filter id="filter0_d_72_3702" x="0" y="24" width="390" height="453" filterUnits="userSpaceOnUse" color-interpolation-filters="sRGB">
<feFlood flood-opacity="0" result="BackgroundImageFix"/>
<feColorMatrix in="SourceAlpha" type="matrix" values="0 0 0 0 0 0 0 0 0 0 0 0 0 0 0 0 0 0 127 0" result="hardAlpha"/>
<feOffset dy="4"/>
<feGaussianBlur stdDeviation="22"/>
<feComposite in2="hardAlpha" operator="out"/>
<feColorMatrix type="matrix" values="0 0 0 0 0 0 0 0 0 0 0 0 0 0 0 0 0 0 0.12 0"/>
<feBlend mode="normal" in2="BackgroundImageFix" result="effect1_dropShadow_72_3702"/>
<feBlend mode="normal" in="SourceGraphic" in2="effect1_dropShadow_72_3702" result="shape"/>
</filter>
<linearGradient id="paint0_linear_72_3702" x1="195" y1="64" x2="195" y2="429" gradientUnits="userSpaceOnUse">
<stop stop-color="#0082DE"/>
<stop offset="1" stop-color="#58F88C"/>
</linearGradient>
<linearGradient id="paint1_linear_72_3702" x1="195" y1="64" x2="195" y2="429" gradientUnits="userSpaceOnUse">
<stop stop-color="#58F88C"/>
<stop offset="1" stop-color="#0082DE"/>
</linearGradient>
<linearGradient id="paint2_linear_72_3702" x1="195" y1="0" x2="195" y2="128" gradientUnits="userSpaceOnUse">
<stop stop-color="#58F88C"/>
<stop offset="1" stop-color="#0082DE"/>
</linearGradient>
<linearGradient id="paint3_linear_72_3702" x1="169" y1="64.0001" x2="221" y2="64.0001" gradientUnits="userSpaceOnUse">
<stop stop-color="#9CFFAC"/>
<stop offset="1" stop-color="#00B59C"/>
</linearGradient>
</defs>
</svg>
