<svg width="390" height="477" viewBox="0 0 390 477" fill="none" xmlns="http://www.w3.org/2000/svg">
<g filter="url(#filter0_d_72_3710)">
<mask id="path-1-inside-1_72_3710" fill="white">
<path fill-rule="evenodd" clip-rule="evenodd" d="M195 138C235.869 138 269 104.869 269 64H330C338.837 64 346 71.1634 346 80V413C346 421.837 338.837 429 330 429H60C51.1634 429 44 421.837 44 413V80C44 71.1635 51.1634 64 60 64H121C121 104.869 154.131 138 195 138Z"/>
</mask>
<path fill-rule="evenodd" clip-rule="evenodd" d="M195 138C235.869 138 269 104.869 269 64H330C338.837 64 346 71.1634 346 80V413C346 421.837 338.837 429 330 429H60C51.1634 429 44 421.837 44 413V80C44 71.1635 51.1634 64 60 64H121C121 104.869 154.131 138 195 138Z" fill="url(#paint0_linear_72_3710)" fill-opacity="0.1" shape-rendering="crispEdges"/>
<path d="M269 64V62H267V64H269ZM121 64H123V62H121V64ZM267 64C267 103.765 234.764 136 195 136V140C236.974 140 271 105.974 271 64H267ZM269 66H330V62H269V66ZM330 66C337.732 66 344 72.268 344 80H348C348 70.0589 339.941 62 330 62V66ZM344 80V413H348V80H344ZM344 413C344 420.732 337.732 427 330 427V431C339.941 431 348 422.941 348 413H344ZM330 427H60V431H330V427ZM60 427C52.268 427 46 420.732 46 413H42C42 422.941 50.0589 431 60 431V427ZM46 413V80H42V413H46ZM46 80C46 72.268 52.268 66 60 66V62C50.0589 62 42 70.0589 42 80H46ZM60 66H121V62H60V66ZM195 136C155.235 136 123 103.765 123 64H119C119 105.974 153.026 140 195 140V136Z" fill="url(#paint1_linear_72_3710)" mask="url(#path-1-inside-1_72_3710)"/>
</g>
<circle cx="195" cy="64" r="63" stroke="url(#paint2_linear_72_3710)" stroke-width="2"/>
<path d="M172.702 84.5264H174.179V67.3716C174.18 67.1253 174.278 66.8894 174.452 66.7153C174.626 66.5411 174.862 66.443 175.108 66.4423H182.346C182.592 66.443 182.828 66.5411 183.002 66.7152C183.176 66.8894 183.274 67.1253 183.275 67.3716V84.5264H185.031V60.1324C185.031 59.8861 185.13 59.6502 185.304 59.476C185.478 59.3019 185.714 59.2038 185.96 59.2031H193.188C193.31 59.2026 193.431 59.2264 193.544 59.2729C193.657 59.3195 193.76 59.3879 193.846 59.4743C193.933 59.5607 194.001 59.6633 194.047 59.7762C194.094 59.8892 194.118 60.0102 194.117 60.1324V84.5264H195.883V52.9024C195.882 52.7802 195.906 52.6592 195.953 52.5463C195.999 52.4333 196.067 52.3307 196.154 52.2443C196.24 52.158 196.343 52.0895 196.456 52.043C196.569 51.9964 196.69 51.9727 196.812 51.9731H204.04C204.286 51.9738 204.522 52.0719 204.696 52.2461C204.87 52.4202 204.969 52.6562 204.969 52.9024V84.5264H206.725V56.5174C206.726 56.2711 206.824 56.0352 206.998 55.8611C207.172 55.6869 207.408 55.5888 207.654 55.5881H214.892C215.138 55.5888 215.374 55.6869 215.548 55.8611C215.722 56.0352 215.82 56.2711 215.821 56.5174V84.5264H217.298C217.545 84.5264 217.781 84.6243 217.955 84.7986C218.13 84.9729 218.228 85.2092 218.228 85.4557C218.228 85.7022 218.13 85.9386 217.955 86.1128C217.781 86.2871 217.545 86.385 217.298 86.385H172.702C172.458 86.38 172.227 86.2799 172.057 86.1062C171.887 85.9324 171.791 85.6989 171.791 85.4557C171.791 85.2125 171.887 84.9789 172.057 84.8052C172.227 84.6315 172.458 84.5314 172.702 84.5264ZM178.731 55.6438C179.145 55.6384 179.551 55.5404 179.922 55.3571C180.292 55.1737 180.617 54.9096 180.872 54.5842C181.127 54.2588 181.306 53.8804 181.395 53.4767C181.484 53.0731 181.482 52.6546 181.389 52.2519L187.549 48.135C188.023 48.5134 188.596 48.7494 189.2 48.8156C189.803 48.8818 190.413 48.7754 190.959 48.5089C191.505 48.2424 191.963 47.8266 192.282 47.3097C192.601 46.7929 192.767 46.1962 192.761 45.5888L196.942 44.1947C197.313 44.7828 197.828 45.2673 198.437 45.603C199.046 45.9387 199.73 46.1148 200.426 46.1148C201.121 46.1148 201.806 45.9388 202.415 45.6031C203.024 45.2674 203.538 44.783 203.91 44.1949L207.636 45.4401C207.489 50.4062 214.756 50.6061 214.911 45.6818C214.905 44.9015 214.65 44.1435 214.182 43.5191C213.714 42.8946 213.058 42.4365 212.311 42.212C211.564 41.9875 210.765 42.0084 210.03 42.2716C209.296 42.5348 208.665 43.0265 208.23 43.6745L204.495 42.4386C204.785 36.5265 196.071 36.5175 196.347 42.4293L192.176 43.8233C191.734 43.216 191.093 42.7837 190.365 42.6023C189.636 42.421 188.867 42.5022 188.193 42.8317C187.518 43.1612 186.982 43.7179 186.677 44.404C186.372 45.0902 186.319 45.8617 186.527 46.5832L180.357 50.7093C180.01 50.4519 179.606 50.2807 179.179 50.2097C178.752 50.1387 178.315 50.1701 177.902 50.3011C177.49 50.4322 177.115 50.6592 176.807 50.9635C176.499 51.2679 176.268 51.6409 176.133 52.0519C175.997 52.4629 175.961 52.9002 176.028 53.3278C176.094 53.7554 176.261 54.1612 176.515 54.5118C176.768 54.8624 177.101 55.1478 177.487 55.3446C177.872 55.5414 178.299 55.6439 178.731 55.6438ZM220.086 88.1414H169.914C169.67 88.1453 169.438 88.245 169.267 88.4188C169.096 88.5926 169 88.8268 169 89.0707C169 89.3146 169.096 89.5487 169.267 89.7226C169.438 89.8964 169.67 89.9961 169.914 90H220.086C220.33 89.9961 220.562 89.8964 220.733 89.7226C220.904 89.5487 221 89.3146 221 89.0707C221 88.8268 220.904 88.5927 220.733 88.4188C220.562 88.245 220.33 88.1453 220.086 88.1414Z" fill="url(#paint3_linear_72_3710)"/>
<defs>
<filter id="filter0_d_72_3710" x="0" y="24" width="390" height="453" filterUnits="userSpaceOnUse" color-interpolation-filters="sRGB">
<feFlood flood-opacity="0" result="BackgroundImageFix"/>
<feColorMatrix in="SourceAlpha" type="matrix" values="0 0 0 0 0 0 0 0 0 0 0 0 0 0 0 0 0 0 127 0" result="hardAlpha"/>
<feOffset dy="4"/>
<feGaussianBlur stdDeviation="22"/>
<feComposite in2="hardAlpha" operator="out"/>
<feColorMatrix type="matrix" values="0 0 0 0 0 0 0 0 0 0 0 0 0 0 0 0 0 0 0.12 0"/>
<feBlend mode="normal" in2="BackgroundImageFix" result="effect1_dropShadow_72_3710"/>
<feBlend mode="normal" in="SourceGraphic" in2="effect1_dropShadow_72_3710" result="shape"/>
</filter>
<linearGradient id="paint0_linear_72_3710" x1="195" y1="64" x2="195" y2="429" gradientUnits="userSpaceOnUse">
<stop stop-color="#0082DE"/>
<stop offset="1" stop-color="#58F88C"/>
</linearGradient>
<linearGradient id="paint1_linear_72_3710" x1="195" y1="64" x2="195" y2="429" gradientUnits="userSpaceOnUse">
<stop stop-color="#58F88C"/>
<stop offset="1" stop-color="#0082DE"/>
</linearGradient>
<linearGradient id="paint2_linear_72_3710" x1="195" y1="0" x2="195" y2="128" gradientUnits="userSpaceOnUse">
<stop stop-color="#58F88C"/>
<stop offset="1" stop-color="#0082DE"/>
</linearGradient>
<linearGradient id="paint3_linear_72_3710" x1="169" y1="64.0001" x2="221" y2="64.0001" gradientUnits="userSpaceOnUse">
<stop stop-color="#9CFFAC"/>
<stop offset="1" stop-color="#00B59C"/>
</linearGradient>
</defs>
</svg>
