<svg width="24" height="20" viewBox="0 0 24 20" fill="none" xmlns="http://www.w3.org/2000/svg">
<path fill-rule="evenodd" clip-rule="evenodd" d="M1.92753 1.15011L9.1404 8.91894C10.7136 10.6094 13.2851 10.6108 14.8595 8.91894L22.0724 1.15011C22.1451 1.07191 22.1345 0.943118 22.0502 0.879847C21.3145 0.327472 20.4194 0 19.4552 0H4.54475C3.58052 0 2.68543 0.327529 1.94975 0.879847C1.86548 0.943118 1.85489 1.07191 1.92753 1.15011ZM0 4.89288C0 4.07659 0.187987 3.30532 0.519116 2.62741C0.570897 2.52136 0.702149 2.49992 0.780838 2.58463L7.9024 10.2518C10.1576 12.6833 13.8411 12.6847 16.0976 10.2518L23.2192 2.58463C23.2979 2.49992 23.4291 2.52136 23.4809 2.62741C23.812 3.30532 24 4.07664 24 4.89288V15.1071C24 17.8071 21.96 20 19.4552 20H4.54475C2.04007 20 0 17.8071 0 15.1071V4.89288Z" fill="#00BFB3"/>
</svg>
