<svg width="26" height="26" viewBox="0 0 26 26" fill="none" xmlns="http://www.w3.org/2000/svg">
<path d="M25.9093 1.41688L14.9095 25.4163C14.8174 25.6173 14.6614 25.7822 14.4657 25.8851C14.27 25.988 14.0457 26.0231 13.8279 25.985C13.6101 25.9469 13.4111 25.8377 13.262 25.6745C13.1128 25.5112 13.022 25.3032 13.0037 25.0828L12.0737 13.9264L0.917199 12.9964C0.696855 12.9781 0.48879 12.8873 0.325546 12.7382C0.162301 12.589 0.0530815 12.39 0.0149693 12.1722C-0.0231429 11.9544 0.0120012 11.7302 0.114905 11.5345C0.217809 11.3388 0.38267 11.1827 0.583704 11.0906L24.5833 0.0909172C24.7689 0.00589068 24.976 -0.0203315 25.1768 0.0157718C25.3777 0.0518752 25.5627 0.148575 25.707 0.292887C25.8514 0.437198 25.9481 0.62221 25.9842 0.823079C26.0203 1.02395 25.9943 1.23135 25.9093 1.41688Z" fill="#00BFB3"/>
</svg>
