<svg width="17" height="18" viewBox="0 0 17 18" fill="none" xmlns="http://www.w3.org/2000/svg">
<path fill-rule="evenodd" clip-rule="evenodd" d="M8.5 16.5C12.6421 16.5 16 13.1421 16 9C16 4.85786 12.6421 1.5 8.5 1.5C4.35786 1.5 1 4.85786 1 9C1 13.1421 4.35786 16.5 8.5 16.5ZM8.5 17.5C13.1944 17.5 17 13.6944 17 9C17 4.30558 13.1944 0.5 8.5 0.5C3.80558 0.5 0 4.30558 0 9C0 13.6944 3.80558 17.5 8.5 17.5Z" fill="white"/>
<path d="M6.30273 5.66997C6.42673 5.55397 6.56273 5.44397 6.71073 5.33997C6.86273 5.23597 7.02673 5.14397 7.20273 5.06397C7.38273 4.98397 7.57473 4.92197 7.77873 4.87797C7.98673 4.82997 8.21073 4.80597 8.45073 4.80597C8.76673 4.80597 9.05873 4.85197 9.32673 4.94397C9.59873 5.03597 9.83273 5.16597 10.0287 5.33397C10.2247 5.50197 10.3787 5.70597 10.4907 5.94597C10.6027 6.18597 10.6587 6.45597 10.6587 6.75597C10.6587 7.05997 10.6127 7.32197 10.5207 7.54197C10.4327 7.76197 10.3187 7.95597 10.1787 8.12397C10.0427 8.28797 9.89273 8.43197 9.72873 8.55597C9.56873 8.67597 9.41673 8.78997 9.27273 8.89797C9.12873 9.00597 9.00473 9.11397 8.90073 9.22197C8.80073 9.32997 8.74273 9.44997 8.72673 9.58197L8.61873 10.5H7.88673L7.81473 9.50397C7.79873 9.32397 7.83273 9.16797 7.91673 9.03597C8.00073 8.89997 8.11073 8.77397 8.24673 8.65797C8.38273 8.53797 8.53273 8.42197 8.69673 8.30997C8.86073 8.19397 9.01273 8.06597 9.15273 7.92597C9.29673 7.78597 9.41673 7.62797 9.51273 7.45197C9.60873 7.27197 9.65673 7.05797 9.65673 6.80997C9.65673 6.63797 9.62273 6.48197 9.55473 6.34197C9.48673 6.20197 9.39473 6.08397 9.27873 5.98797C9.16273 5.88797 9.02473 5.81197 8.86473 5.75997C8.70873 5.70797 8.54073 5.68197 8.36073 5.68197C8.11673 5.68197 7.90673 5.71197 7.73073 5.77197C7.55873 5.83197 7.41273 5.89797 7.29273 5.96997C7.17273 6.04197 7.07473 6.10797 6.99873 6.16797C6.92673 6.22797 6.86673 6.25797 6.81873 6.25797C6.71873 6.25797 6.64073 6.21197 6.58473 6.11997L6.30273 5.66997ZM7.47273 12.84C7.47273 12.736 7.49073 12.638 7.52673 12.546C7.56673 12.454 7.61873 12.374 7.68273 12.306C7.75073 12.238 7.83073 12.184 7.92273 12.144C8.01473 12.104 8.11273 12.084 8.21673 12.084C8.32073 12.084 8.41873 12.104 8.51073 12.144C8.60273 12.184 8.68273 12.238 8.75073 12.306C8.81873 12.374 8.87274 12.454 8.91273 12.546C8.95273 12.638 8.97273 12.736 8.97273 12.84C8.97273 12.948 8.95273 13.048 8.91273 13.14C8.87274 13.228 8.81873 13.306 8.75073 13.374C8.68273 13.442 8.60273 13.494 8.51073 13.53C8.41873 13.57 8.32073 13.59 8.21673 13.59C8.11273 13.59 8.01473 13.57 7.92273 13.53C7.83073 13.494 7.75073 13.442 7.68273 13.374C7.61873 13.306 7.56673 13.228 7.52673 13.14C7.49073 13.048 7.47273 12.948 7.47273 12.84Z" fill="white"/>
</svg>
