<svg width="21" height="21" viewBox="0 0 21 21" fill="none" xmlns="http://www.w3.org/2000/svg">
<rect y="6.69028" width="5.24434" height="13.3769" fill="#00BFB3"/>
<path d="M19.5299 8.18776C18.5653 7.1895 17.2895 6.69028 15.7033 6.69028C15.1189 6.69028 14.5877 6.75843 14.1098 6.89484C13.6321 7.03115 13.2287 7.2224 12.8993 7.46868C12.57 7.71497 12.3078 7.9436 12.1132 8.15458C11.9281 8.35498 11.747 8.58842 11.5704 8.85249V6.99349H6.99219L7.00622 7.6268C7.01563 8.04909 7.02026 9.35065 7.02026 11.5317C7.02026 13.7129 7.011 16.5579 6.99238 20.0671H11.5704V12.7716C11.5704 12.3232 11.6212 11.9671 11.7234 11.703C11.9184 11.2542 12.2126 10.8785 12.6071 10.5752C13.0015 10.2716 13.4907 10.1199 14.0753 10.1199C14.8729 10.1199 15.4598 10.3815 15.8356 10.9048C16.2112 11.428 16.3991 12.1514 16.3991 13.0749V20.0667H20.9771V12.574C20.9767 10.6477 20.4947 9.18569 19.5299 8.18776Z" fill="#00BFB3"/>
<path d="M2.63618 0C1.85202 0 1.21665 0.237304 0.729899 0.711451C0.2432 1.1857 0 1.78443 0 2.50821C0 3.22187 0.236201 3.81855 0.708651 4.29758C1.18095 4.77665 1.80467 5.01632 2.57944 5.01632H2.60779C3.40158 5.01632 4.04182 4.77686 4.52837 4.29758C5.01492 3.81855 5.25345 3.22208 5.24407 2.50821C5.23464 1.78448 4.99352 1.1857 4.52122 0.711451C4.04897 0.237099 3.42039 0 2.63618 0Z" fill="#00BFB3"/>
</svg>
