<svg width="146" height="110" viewBox="0 0 146 110" fill="none" xmlns="http://www.w3.org/2000/svg">
<path d="M74.5194 54.7267C74.5194 62.2248 70.3547 69.0253 63.7983 72.4269V80.5111C62.4461 81.0036 61.04 81.3874 59.5975 81.6532C58.011 81.9463 56.3764 82.1002 54.7056 82.1002C53.038 82.1002 51.4062 81.946 49.8197 81.6532C48.3772 81.3874 46.974 81.0036 45.6217 80.5143V72.4269C39.0622 69.0282 34.8976 62.228 34.8976 54.7267C34.8976 46.7481 39.6059 39.5639 46.8929 36.4221C47.539 36.1414 48.287 36.2075 48.8762 36.5972C49.4651 36.9901 49.8197 37.6517 49.8197 38.3617V53.3854H59.5972V38.3617C59.5972 37.6517 59.9519 36.987 60.5408 36.5972C61.1328 36.2075 61.8779 36.1411 62.5269 36.4221C69.8136 39.5699 74.5194 46.7541 74.5194 54.7267ZM85.9346 108.024L103.053 96.6621L87.1668 87.4387L85.9346 108.024ZM145.25 22.5041C144.865 21.0601 143.948 19.8545 142.671 19.1145L134.153 14.1629C131.505 12.6251 128.101 13.5437 126.572 16.2082L123.606 21.374L141.74 31.8995L144.706 26.7365C145.442 25.4525 145.637 23.951 145.25 22.5041ZM88.1431 83.1307L106.277 93.659L139.64 35.5579L121.506 25.0327L88.1431 83.1307ZM104.649 45.9443L83.4555 82.8468C83.2936 83.1307 83.1971 83.4481 83.1792 83.7743L82.44 96.1304L75.544 91.7497C74.913 91.3511 74.1198 91.3179 73.4557 91.6622C71.4784 92.6924 69.3813 93.5686 67.2295 94.2663C66.5236 94.4958 65.9885 95.0821 65.8234 95.8102L62.6353 110H46.7819L43.5938 95.8102C43.4284 95.0821 42.8967 94.4958 42.1874 94.2663C40.0422 93.5715 37.9417 92.6952 35.9496 91.659C35.2884 91.3176 34.4954 91.3508 33.8641 91.7495L21.6285 99.5166L10.4208 88.2511L18.149 75.9522C18.5486 75.3178 18.5816 74.5202 18.2423 73.8558C17.2114 71.8529 16.3402 69.7441 15.6491 67.5842C15.4205 66.871 14.8376 66.3365 14.1135 66.1702L0 62.9652V47.026L14.1135 43.8175C14.8376 43.6544 15.4205 43.1167 15.6491 42.4067C16.337 40.2587 17.2057 38.1471 18.2361 36.1291C18.5728 35.4643 18.5395 34.6699 18.143 34.0386L10.4176 21.7398L21.6285 10.4743L33.8641 18.2382C34.4951 18.64 35.2884 18.6732 35.9496 18.3289C37.9539 17.2896 40.051 16.4165 42.1815 15.7337C42.8905 15.5071 43.4284 14.9181 43.5938 14.187L46.7819 0H62.6353L65.8234 14.187C65.9888 14.9181 66.5265 15.5071 67.2358 15.7337C69.3722 16.4194 71.4665 17.2896 73.4557 18.3289C74.1169 18.6732 74.913 18.64 75.544 18.2382L87.7856 10.4743L98.9905 21.7398L91.2651 34.0475C90.8687 34.6819 90.8356 35.4826 91.178 36.1471C92.2115 38.1471 93.0802 40.2527 93.759 42.4007C93.9845 43.1138 94.5705 43.6544 95.2974 43.8175L104.649 45.9443ZM85.8566 54.9986C85.8566 37.7302 71.8843 23.6794 54.7059 23.6794C37.5275 23.6794 23.5518 37.7302 23.5518 54.9986C23.5518 69.6325 33.5849 81.9526 47.0944 85.3722C47.1636 85.3934 47.2296 85.4086 47.2988 85.4235C49.6726 86.0095 52.1545 86.3209 54.7056 86.3209C57.2536 86.3209 59.7327 86.0127 62.1034 85.4266C62.1754 85.4115 62.2505 85.3934 62.3228 85.3722C75.8295 81.9494 85.8566 69.6297 85.8566 54.9986Z" fill="url(#paint0_linear_2304_4490)"/>
<defs>
<linearGradient id="paint0_linear_2304_4490" x1="-137.985" y1="163.445" x2="233.721" y2="-36.3486" gradientUnits="userSpaceOnUse">
<stop offset="0.18" stop-color="#32BFE0"/>
<stop offset="0.23" stop-color="#21C6D5"/>
<stop offset="0.31" stop-color="#0ECECA"/>
<stop offset="0.39" stop-color="#03D3C3"/>
<stop offset="0.47" stop-color="#00D5C1"/>
<stop offset="0.5" stop-color="#04CBC0"/>
<stop offset="0.55" stop-color="#10B3BE"/>
<stop offset="0.61" stop-color="#248BBB"/>
<stop offset="0.68" stop-color="#3F54B6"/>
<stop offset="0.75" stop-color="#610EB1"/>
<stop offset="0.77" stop-color="#6900B0"/>
<stop offset="0.8" stop-color="#6603B1"/>
<stop offset="0.84" stop-color="#5E0FB7"/>
<stop offset="0.88" stop-color="#5123C1"/>
<stop offset="0.91" stop-color="#3F3FCF"/>
<stop offset="0.95" stop-color="#2863E0"/>
<stop offset="0.99" stop-color="#0C8FF5"/>
<stop offset="1" stop-color="#00A2FF"/>
</linearGradient>
</defs>
</svg>
